<?xml version="1.0" standalone="yes"?>
<svg xmlns="http://www.w3.org/2000/svg" width="207" height="206">
<path style="fill:#000000; stroke:none;" d="M0 0L0 48C2.42361 42.2243 1.72418 35.1478 4.06559 29C9.8826 13.7263 25.4145 1.35329 42 1C37.7849 -0.768738 32.5355 0 28 0L0 0z"/>
<path style="fill:#8c0af9; stroke:none;" d="M32 2C34.397 3.00618 39.5529 2.25372 41.0787 4.56018C42.6355 6.91347 38.5487 9.03615 36.9946 9.86188C31.9814 12.5254 26.561 12.9847 21 13L21 8C16.1764 10.2497 12.4557 13.8136 11 19C19.9046 19 30.6474 19.5154 38.8302 15.4854C42.2 13.8258 55.1937 5.87161 48.6775 1.45757C44.4068 -1.43538 36.6547 1.13277 32 2z"/>
<path style="fill:#9809f6; stroke:none;" d="M47 0C52.6403 5.80663 46.7331 9.8251 41.4236 13.3843C33.7887 18.5023 18.3762 21.6583 10 17C8.81821 19.4297 8.26951 21.3127 8 24C21.7585 23.9909 35.6755 20.344 47.9992 14.2438C52.0361 12.2456 56.2172 10.0015 59.2454 6.57176C60.3218 5.35263 61.9893 3.19298 60.8426 1.51312C58.7886 -1.49596 50.1886 0 47 0z"/>
<path style="fill:#ad07f0; stroke:none;" d="M61 0C63.3316 0.984528 65.4566 0.981262 68 1C64.4796 8.3186 57.928 11.6042 51.0008 15.2554C41.8138 20.0976 33.505 24.4277 23 25.9961C17.8175 26.7699 9.34496 30.1548 6 25C4.58397 27.0415 4.25485 28.511 4 31C16.3341 31 27.0564 29.9692 38.6998 25.6158C44.4356 23.4712 49.142 19.1895 55 17.0756C63.5035 14.0071 75.5715 10.2644 79 1C73.2737 -0.692612 66.9428 0 61 0z"/>
<path style="fill:#bc06ec; stroke:none;" d="M78 0C77.1146 8.32068 66.6325 11.8295 60 14.831C42.274 22.8528 23.3984 34.8564 3 30L2 37C23.7739 36.9399 47.8303 29.0806 67 19.1049C76.4687 14.1776 85.5247 8.69786 92 0L78 0z"/>
<path style="fill:#cc05e7; stroke:none;" d="M1 37L1 46C13.5213 45.7416 28.3191 43.0311 40 38.4907C43.9569 36.9527 47.1873 33.988 51 32.1312C55.3732 30.0014 60.1638 29.1724 64.5756 27.2369C68.2521 25.624 71.4353 23.0474 75.0895 21.4545C84.9251 17.1671 100.221 11.0267 104 0C100.501 0 96.355 -0.577377 93.0039 0.588745C88.8031 2.05052 85.987 6.06516 82.6998 8.84799C78.5887 12.3284 73.7668 15.1003 69 17.5756C48.6957 28.1195 24.1364 36.9362 1 37z"/>
<path style="fill:#d904e3; stroke:none;" d="M65 26C75.4167 30.371 84.1731 24.8974 93 20.3233C103.591 14.8351 114.015 10.3415 121 0C116.451 0 109.577 -1.29289 105.375 0.603394C101.688 2.26707 99.0409 6.94902 95.7539 9.40201C86.6837 16.1708 75.6413 22.2587 65 26z"/>
<path style="fill:#ed02dd; stroke:none;" d="M84 25C97.0014 30.4556 111.975 16.3217 122.015 10.1304C127.063 7.01692 131.468 4.95798 135 0C130.968 0 125.843 -0.825455 122.015 0.602631C119.072 1.70029 117.095 4.34357 114.83 6.3858C111.15 9.70551 107.007 12.6586 102.83 15.3256C96.9293 19.0938 90.0518 21.2961 84 25z"/>
<path style="fill:#fc01d8; stroke:none;" d="M94 25C99.5389 27.3242 107.042 25.8687 113 26.0147C120.946 26.2093 129.834 28.6246 137.711 26.5401C143.05 25.127 147.239 20.8769 152.285 18.811C162.861 14.4815 176.564 9.93408 188 9C178.024 -0.332031 162.743 0 150 0C145.68 0 140.114 -0.905136 136 0.603394C132.58 1.8575 130.102 4.94717 127 6.79089C115.885 13.3977 106.224 20.5029 94 25z"/>
<path style="fill:#000000; stroke:none;" d="M166 0C171.112 2.29579 176.86 2.75108 182 5.37422C195.199 12.1102 205.346 26.009 206 41C207.769 36.7848 207 31.5355 207 27L207 0L166 0z"/>
<path style="fill:#a208f3; stroke:none;" d="M62 1C56.8655 13.8963 35.5711 20.4327 22.9992 22.2847C18.004 23.0206 11.2721 26.0464 8 21C6.40889 23.3144 6.14247 25.1901 6 28C22.787 27.9537 37.4219 22.9169 52 15.2554C58.6092 11.7819 65.5715 8.52136 68 1L62 1z"/>
<path style="fill:#810bfd; stroke:none;" d="M21 13C24.009 12.998 27.0263 13.0757 30 12.5355C31.6919 12.2281 33.3871 11.7872 35 11.189C37.0015 10.4467 43.7415 7.76178 41.8241 4.56018C40.6291 2.56479 36.9291 2.99405 35 3.00462C27.8604 3.04373 21.2637 5.06512 21 13z"/>
<path style="fill:#fd01bf; stroke:none;" d="M139 25C141.573 28.6454 146.916 28.6273 151 30.0039C154.212 31.0866 157.565 33.0234 161 33.1466C166.482 33.3433 171.927 30.3728 177 28.7353C184.753 26.2329 192.89 25.0009 201 25C199.516 18.7394 193.86 10.4263 187 9.3179C178.753 7.98524 167.637 13.7495 160 16.4097C156.915 17.4844 153.513 17.7874 150.576 19.2122C146.624 21.1293 143.294 23.9332 139 25z"/>
<path style="fill:#fd01b6; stroke:none;" d="M161 33C166.255 42.1289 172.356 37.4672 180.039 35.2083C187.668 32.9656 195.407 31.335 203 29L202 24C194.119 25.8764 185.962 26.1885 178 28.1728C172.205 29.6172 166.997 32.1918 161 33z"/>
<path style="fill:#fd31df; stroke:none;" d="M84 26C87.6987 27.552 92.0172 27 96 27L119 27C115.301 25.448 110.983 26 107 26L84 26z"/>
<path style="fill:#df49ec; stroke:none;" d="M65.6667 27.3333C65.2222 27.7778 66.2778 27.7222 66.3333 27.6667C66.7777 27.2222 65.7222 27.2778 65.6667 27.3333z"/>
<path style="fill:#f0a1f4; stroke:none;" d="M67 27C68.769 27.7789 70.0359 27.9124 72 28C70.231 27.2211 68.9641 27.0876 67 27z"/>
<path style="fill:#faddfb; stroke:none;" d="M72 27C73.769 27.7789 75.0359 27.9124 77 28C75.231 27.2211 73.9641 27.0876 72 27z"/>
<path style="fill:#ffffff; stroke:none;" d="M77 27.4244C60.7184 29.5622 47.5558 29.7596 36.3904 44C29.376 52.9464 28.0007 65.0274 28 76L28 123C28 138.153 28.391 154.052 39.3009 165.91C56.5605 184.668 89.1786 179 112 179C123.041 179 134.057 179.411 145 177.704C148.723 177.123 152.565 176.04 156 174.482C169.027 168.575 176.901 155.89 178.711 142C179.315 137.358 178.771 132.658 179.09 128C179.98 114.992 180 102.066 180 89C180 75.0247 180.293 58.1694 172.451 46C157.978 23.5375 127.217 27 104 27C95.1017 27 85.8316 26.2648 77 27.4244z"/>
<path style="fill:#fec3f4; stroke:none;" d="M130 27C132.052 27.8743 133.747 27.9528 136 28C133.948 27.1258 132.253 27.0472 130 27z"/>
<path style="fill:#fe98ec; stroke:none;" d="M136 27C137.248 27.6848 137.549 27.7488 139 28C137.752 27.3152 137.452 27.2512 136 27z"/>
<path style="fill:#fd52de; stroke:none;" d="M139.667 27.3333C139.222 27.7778 140.278 27.7222 140.333 27.6667C140.778 27.2222 139.722 27.2778 139.667 27.3333z"/>
<path style="fill:#e77cf1; stroke:none;" d="M60.6667 28.3333C60.2222 28.7778 61.2778 28.7222 61.3333 28.6667C61.7778 28.2222 60.7222 28.2778 60.6667 28.3333z"/>
<path style="fill:#fe8fe8; stroke:none;" d="M144 28C145.248 28.6848 145.548 28.7488 147 29C145.752 28.3152 145.452 28.2512 144 28z"/>
<path style="fill:#f3c3f9; stroke:none;" d="M57.6667 29.3333C57.2222 29.7778 58.2778 29.7222 58.3333 29.6667C58.7778 29.2222 57.7222 29.2778 57.6667 29.3333z"/>
<path style="fill:#fe98e8; stroke:none;" d="M149 29L150 30L149 29z"/>
<path style="fill:#fd01a7; stroke:none;" d="M168 39C170.348 44.276 174.338 48.3503 176 54C186.532 53.0805 196.212 48.2227 207 48C206.964 43.676 207.293 32.8222 203.272 30.0718C200.681 28.2988 196.583 31.1411 194 31.8164C185.376 34.0708 176.636 37.291 168 39z"/>
<path style="fill:#e67ef2; stroke:none;" d="M54 30L55 31L54 30z"/>
<path style="fill:#fea4ea; stroke:none;" d="M152 30L153 31L152 30z"/>
<path style="fill:#fe74dd; stroke:none;" d="M155 31L156 32L155 31z"/>
<path style="fill:#de51ed; stroke:none;" d="M49 32L50 33L49 32z"/>
<path style="fill:#fe83e0; stroke:none;" d="M157 32L158 33L157 32z"/>
<path style="fill:#fe6ed9; stroke:none;" d="M159 33L160 34L159 33z"/>
<path style="fill:#ec93f4; stroke:none;" d="M46 34L47 35L46 34z"/>
<path style="fill:#fe77d9; stroke:none;" d="M162 35L163 36L162 35z"/>
<path style="fill:#e66aef; stroke:none;" d="M43 36L44 37L43 36z"/>
<path style="fill:#feb1e9; stroke:none;" d="M163 36L164 37L163 36z"/>
<path style="fill:#ed91f3; stroke:none;" d="M42 37L43 38L42 37z"/>
<path style="fill:#f2aaf5; stroke:none;" d="M41 38L42 39L41 38z"/>
<path style="fill:#e203e0; stroke:none;" d="M0 53C8.19942 52.9774 16.0276 51.173 24 49.4244C26.9889 48.7688 30.8752 48.701 33.4861 46.9869C36.2653 45.1623 38.211 41.7137 40 39C34.4697 39.3522 29.4712 41.8566 24 42.7037C17.5701 43.6993 8.19181 43.3119 2.43364 46.564C0.0587006 47.9054 0.132208 50.6136 0 53z"/>
<path style="fill:#f4b5f6; stroke:none;" d="M40 39L41 40L40 39z"/>
<path style="fill:#f4b0f6; stroke:none;" d="M39 40L40 41L39 40z"/>
<path style="fill:#fec6f6; stroke:none;" d="M74 40C76.3316 40.9845 78.4566 40.9813 81 41C78.6684 40.0155 76.5434 40.0187 74 40z"/>
<path style="fill:#fe90ee; stroke:none;" d="M81 40C84.9586 41.6611 89.7397 41 94 41L119 41C115.041 39.3389 110.26 40 106 40L81 40z"/>
<path style="fill:#fea5ed; stroke:none;" d="M119 40C121.89 41.2129 124.874 40.9983 128 41C125.11 39.7871 122.126 40.0017 119 40z"/>
<path style="fill:#ffe0f8; stroke:none;" d="M128 40C129.506 40.683 130.315 40.8259 132 41C130.494 40.317 129.685 40.1741 128 40z"/>
<path style="fill:#f3a2f4; stroke:none;" d="M38 41L39 42L38 41z"/>
<path style="fill:#fc94ef; stroke:none;" d="M65.6667 41.3333C65.2222 41.7778 66.2778 41.7222 66.3333 41.6667C66.7778 41.2222 65.7222 41.2778 65.6667 41.3333z"/>
<path style="fill:#fc53e5; stroke:none;" d="M67.6667 41.3333C67.2222 41.7778 68.2777 41.7223 68.3333 41.6667C68.7778 41.2222 67.7222 41.2778 67.6667 41.3333z"/>
<path style="fill:#fc01d8; stroke:none;" d="M44 59C53.2204 59 62.8515 58.2085 72 59.4244C78.2234 60.2515 86.5732 63.3436 92.7137 61.5046C100.116 59.2879 108.638 47.483 112 41C89.9454 41 54.5083 33.9328 44 59z"/>
<path style="fill:#fc01cd; stroke:none;" d="M43 65C49.6128 65 56.414 64.5426 63 65.1698C70.6064 65.8941 78.3136 67.7128 86 67.1968C89.7697 66.9437 93.29 65.1334 97 64.4645C101.016 63.7404 105.939 64.975 109.715 63.3966C118.853 59.5764 122.691 45.8931 132 43L132 41C126.452 41 117.22 39.2294 112.285 42.0278C104.285 46.565 101.531 57.8546 92.7137 61.1952C88.5013 62.7912 84.2056 60.9456 80 60.2963C73.9975 59.3696 68.0654 59 62 59C55.3191 59 43.6918 56.1205 43 65z"/>
<path style="fill:#fd01c0; stroke:none;" d="M111 65C114.38 65.4969 118.526 67.46 121.83 65.9715C130.597 62.022 132.001 51.2673 142 49C143.48 46.2582 145.114 45.1507 148 44C143.135 41.4125 135.011 39.8044 130.054 42.8619C126.629 44.9743 123.753 49.1898 120.91 52.054C116.999 55.9933 112.533 59.5381 111 65z"/>
<path style="fill:#fe69d9; stroke:none;" d="M138 41C139.248 41.6848 139.548 41.7488 141 42C139.752 41.3152 139.452 41.2512 138 41z"/>
<path style="fill:#f081f0; stroke:none;" d="M37 42L38 43L37 42z"/>
<path style="fill:#fa5fe7; stroke:none;" d="M61.6667 42.3333C61.2222 42.7778 62.2778 42.7222 62.3333 42.6667C62.7778 42.2222 61.7222 42.2778 61.6667 42.3333z"/>
<path style="fill:#fe8ee0; stroke:none;" d="M144.667 42.3333C144.222 42.7778 145.278 42.7222 145.333 42.6667C145.778 42.2222 144.722 42.2778 144.667 42.3333z"/>
<path style="fill:#ec50e9; stroke:none;" d="M36 43L37 44L36 43z"/>
<path style="fill:#fcacf3; stroke:none;" d="M58 43L59 44L58 43z"/>
<path style="fill:#fe89de; stroke:none;" d="M148 43L149 44L148 43z"/>
<path style="fill:#feabe3; stroke:none;" d="M170 43L171 44L170 43z"/>
<path style="fill:#fb8aee; stroke:none;" d="M56 44L57 45L56 44z"/>
<path style="fill:#fd01b5; stroke:none;" d="M142 49C131.957 50.3373 127.791 61.4052 120 67C126.918 72.8138 133.371 77.8327 142 73L142 71C139.968 69.8882 138.294 68.9238 137.008 66.892C133.642 61.5698 137.58 53.8673 144.001 53.5579C147.489 53.3898 149.909 55.57 152 58L161 55C158.209 49.0187 145.661 37.9787 142 49z"/>
<path style="fill:#fe61d1; stroke:none;" d="M150 44L151 45L150 44z"/>
<path style="fill:#fe6fce; stroke:none;" d="M171 44L172 45L171 44z"/>
<path style="fill:#fca0f1; stroke:none;" d="M54 45L55 46L54 45z"/>
<path style="fill:#fe6ad2; stroke:none;" d="M152 45L153 46L152 45z"/>
<path style="fill:#f266eb; stroke:none;" d="M34 46L35 47L34 46z"/>
<path style="fill:#feb4e8; stroke:none;" d="M154 46L155 47L154 46z"/>
<path style="fill:#fe80d7; stroke:none;" d="M155 47L156 48L155 47z"/>
<path style="fill:#fe60c7; stroke:none;" d="M173 47L174 48L173 47z"/>
<path style="fill:#fc01d8; stroke:none;" d="M0 53L0 71C9.86275 70.9728 18.4054 66.2054 28 66C28.8461 59.7219 31.3459 54.0599 33 48C21.8368 48.4805 11.2631 52.9068 0 53z"/>
<path style="fill:#f78eef; stroke:none;" d="M33 48L34 49L33 48z"/>
<path style="fill:#feadf2; stroke:none;" d="M50 48L51 49L50 48z"/>
<path style="fill:#fe60cc; stroke:none;" d="M156 48L157 49L156 48z"/>
<path style="fill:#fe0097; stroke:none;" d="M177 54C178.6 63.9575 184.357 59.011 191 57.2631C196.072 55.9286 201.781 55.4119 207 55L207 48C196.502 48.0869 187.076 51.6689 177 54z"/>
<path style="fill:#fea9f2; stroke:none;" d="M49 49L50 50L49 49z"/>
<path style="fill:#fe58c8; stroke:none;" d="M157 49L158 50L157 49z"/>
<path style="fill:#fe75cc; stroke:none;" d="M174 49L175 50L174 49z"/>
<path style="fill:#fa8eef; stroke:none;" d="M32 50L33 51L32 50z"/>
<path style="fill:#feb7f4; stroke:none;" d="M48 50L49 51L48 50z"/>
<path style="fill:#fe62ca; stroke:none;" d="M158 50L159 51L158 50z"/>
<path style="fill:#fe85d5; stroke:none;" d="M159 51L160 52L159 51z"/>
<path style="fill:#fe64c4; stroke:none;" d="M175 51L176 52L175 51z"/>
<path style="fill:#fb6ee9; stroke:none;" d="M31 52L32 53L31 52z"/>
<path style="fill:#fd72e9; stroke:none;" d="M46 53L47 54L46 53z"/>
<path style="fill:#feb2e7; stroke:none;" d="M142 53C143.769 53.7789 145.036 53.9124 147 54C145.231 53.2211 143.964 53.0876 142 53z"/>
<path style="fill:#fe48c8; stroke:none;" d="M139 54L140 55L139 54z"/>
<path style="fill:#ffffff; stroke:none;" d="M140.059 55.0278C130.561 60.2246 139.217 75.2484 148.891 69.821C158.438 64.4652 149.84 49.6754 140.059 55.0278z"/>
<path style="fill:#fe77ce; stroke:none;" d="M161 54L162 55L161 54z"/>
<path style="fill:#fe92d4; stroke:none;" d="M176 54L177 55L176 54z"/>
<path style="fill:#fe8aed; stroke:none;" d="M30 55L31 56L30 55z"/>
<path style="fill:#fd4ee4; stroke:none;" d="M45 55L46 56L45 55z"/>
<path style="fill:#fe85db; stroke:none;" d="M138 55L139 56L138 55z"/>
<path style="fill:#fe7dd3; stroke:none;" d="M150 55L151 56L150 55z"/>
<path style="fill:#fe0097; stroke:none;" d="M133 76C134.697 79.427 137.681 86.8204 141.39 88.3573C149.099 91.551 163.877 84.2756 165.397 75.9846C166.258 71.2858 165.596 53.9289 157.977 55.6312C152.039 56.9578 154.485 63.9085 151.346 67.7863C147.833 72.1276 138.353 75.0346 133 76z"/>
<path style="fill:#fe0088; stroke:none;" d="M179 61L180 78C189.467 76.6625 197.032 72 207 72L207 55C201.276 55.2458 194.459 55.7395 189 57.5448C185.442 58.7213 182.811 60.5785 179 61z"/>
<path style="fill:#fe82da; stroke:none;" d="M137 56L138 57L137 56z"/>
<path style="fill:#fe7ad1; stroke:none;" d="M151 56L152 57L151 56z"/>
<path style="fill:#fe72ca; stroke:none;" d="M162 56L163 57L162 56z"/>
<path style="fill:#fd63e7; stroke:none;" d="M44 57L45 58L44 57z"/>
<path style="fill:#ff85cd; stroke:none;" d="M177 57L178 58L177 57z"/>
<path style="fill:#feabf2; stroke:none;" d="M29.3333 58.6667C29.2778 58.7222 29.2222 59.7778 29.6667 59.3333C29.7222 59.2778 29.7778 58.2222 29.3333 58.6667z"/>
<path style="fill:#fe9dd9; stroke:none;" d="M163 58L164 59L163 58z"/>
<path style="fill:#fea1ef; stroke:none;" d="M43 59L44 60L43 59z"/>
<path style="fill:#fea1e2; stroke:none;" d="M135 60L135 65C135.83 62.9695 135.83 62.0305 135 60z"/>
<path style="fill:#fe97d8; stroke:none;" d="M153 60L153 65C153.83 62.9695 153.83 62.0305 153 60z"/>
<path style="fill:#fe77c5; stroke:none;" d="M178.333 60.6667C178.278 60.7222 178.222 61.7778 178.667 61.3333C178.722 61.2777 178.778 60.2223 178.333 60.6667z"/>
<path style="fill:#fe63c1; stroke:none;" d="M164.333 61.6667C164.278 61.7222 164.222 62.7778 164.667 62.3333C164.722 62.2778 164.778 61.2222 164.333 61.6667z"/>
<path style="fill:#fd75e4; stroke:none;" d="M28.3333 62.6667C28.2778 62.7222 28.2222 63.7778 28.6667 63.3333C28.7222 63.2778 28.7778 62.2222 28.3333 62.6667z"/>
<path style="fill:#fe8ce6; stroke:none;" d="M42.3333 62.6667C42.2778 62.7222 42.2222 63.7778 42.6667 63.3333C42.7222 63.2778 42.7778 62.2222 42.3333 62.6667z"/>
<path style="fill:#ffd0ea; stroke:none;" d="M178.333 62.6667C178.278 62.7222 178.222 63.7778 178.667 63.3333C178.722 63.2777 178.778 62.2223 178.333 62.6667z"/>
<path style="fill:#febaf0; stroke:none;" d="M28.3333 64.6667C28.2778 64.7222 28.2223 65.7777 28.6667 65.3333C28.7222 65.2778 28.7778 64.2222 28.3333 64.6667z"/>
<path style="fill:#fc2ecf; stroke:none;" d="M42.3333 64.6667C42.2777 64.7223 42.2222 65.7778 42.6667 65.3333C42.7222 65.2778 42.7778 64.2222 42.3333 64.6667z"/>
<path style="fill:#fe8de8; stroke:none;" d="M96.6667 64.3333C96.2222 64.7778 97.2778 64.7222 97.3333 64.6667C97.7778 64.2222 96.7222 64.2778 96.6667 64.3333z"/>
<path style="fill:#ffffff; stroke:none;" d="M98 64.439C92.2616 65.3427 86.8827 67.3857 82 70.5479C63.9928 82.2098 59.2929 108.573 71.7886 126C80.466 138.102 95.4633 143.85 110 141.561C115.383 140.713 120.444 138.923 125 135.895C153.014 117.279 145.261 72.2157 112 65.0147C107.368 64.0118 102.698 63.6992 98 64.439z"/>
<path style="fill:#fe75de; stroke:none;" d="M109.667 64.3333C109.222 64.7778 110.278 64.7222 110.333 64.6667C110.778 64.2222 109.722 64.2778 109.667 64.3333z"/>
<path style="fill:#fd03b6; stroke:none;" d="M42 72C50.3113 72 58.6969 71.6726 67 72.0394C70.5429 72.1959 74.5141 73.7794 78 72.7762C80.9122 71.9382 83.5283 69.6778 86 68C82.819 66.6652 79.4122 67.1187 76 66.7145C68.9391 65.8782 62.125 65 55 65C51.8508 65 47.227 64.1819 44.3179 65.6034C41.8597 66.8046 42.0762 69.6807 42 72z"/>
<path style="fill:#fd6adf; stroke:none;" d="M92 65L93 66L92 65z"/>
<path style="fill:#fe8ae1; stroke:none;" d="M114 65L115 66L114 65z"/>
<path style="fill:#ffa4d9; stroke:none;" d="M165.333 65.6667C165.278 65.7222 165.222 66.7778 165.667 66.3333C165.722 66.2778 165.778 65.2222 165.333 65.6667z"/>
<path style="fill:#fd03b7; stroke:none;" d="M0 71L0 82C6.39196 81.1922 12.7163 80.3416 19 78.8812C21.2344 78.3619 24.4127 78.1522 25.9869 76.2616C28.029 73.8089 27.8706 69.0139 28 66C18.348 66.081 9.82426 70.9187 0 71z"/>
<path style="fill:#fd64dd; stroke:none;" d="M89 66L90 67L89 66z"/>
<path style="fill:#fe8de1; stroke:none;" d="M117 66L118 67L117 66z"/>
<path style="fill:#feb4e6; stroke:none;" d="M136 66L137 67L136 66z"/>
<path style="fill:#feaade; stroke:none;" d="M152 66L153 67L152 66z"/>
<path style="fill:#fe50af; stroke:none;" d="M179.333 66.6667C179.278 66.7222 179.222 67.7778 179.667 67.3333C179.722 67.2778 179.778 66.2222 179.333 66.6667z"/>
<path style="fill:#ffcaf1; stroke:none;" d="M41.3333 67.6667C41.2777 67.7223 41.2222 68.7777 41.6667 68.3333C41.7222 68.2778 41.7778 67.2222 41.3333 67.6667z"/>
<path style="fill:#fe8de4; stroke:none;" d="M87 67L88 68L87 67z"/>
<path style="fill:#fe67be; stroke:none;" d="M165.333 67.6667C165.278 67.7222 165.222 68.7778 165.667 68.3333C165.722 68.2778 165.778 67.2222 165.333 67.6667z"/>
<path style="fill:#fe93e5; stroke:none;" d="M85 68L86 69L85 68z"/>
<path style="fill:#fe5bc7; stroke:none;" d="M137 68L138 69L137 68z"/>
<path style="fill:#fe53bc; stroke:none;" d="M151 68L152 69L151 68z"/>
<path style="fill:#fe7ac1; stroke:none;" d="M179 68L179 71C179.696 69.4463 179.696 69.5537 179 68z"/>
<path style="fill:#fe7ed7; stroke:none;" d="M41 69L41 76C42.0595 73.4657 42.0595 71.5343 41 69z"/>
<path style="fill:#fe75dc; stroke:none;" d="M83 69L84 70L83 69z"/>
<path style="fill:#feafe7; stroke:none;" d="M123 69L124 70L123 69z"/>
<path style="fill:#fe57c5; stroke:none;" d="M138 69L139 70L138 69z"/>
<path style="fill:#fe50bb; stroke:none;" d="M150 69L151 70L150 69z"/>
<path style="fill:#fe1e9b; stroke:none;" d="M165 69L165 74C165.83 71.9695 165.83 71.0305 165 69z"/>
<path style="fill:#fe6fd3; stroke:none;" d="M125 70L126 71L125 70z"/>
<path style="fill:#fea4de; stroke:none;" d="M140 70L141 71L140 70z"/>
<path style="fill:#fe9eda; stroke:none;" d="M148 70L149 71L148 70z"/>
<path style="fill:#fd5ecc; stroke:none;" d="M27 71L27 76C27.8299 73.9695 27.8299 73.0305 27 71z"/>
<path style="fill:#fe76d8; stroke:none;" d="M80 71L81 72L80 71z"/>
<path style="fill:#feb9e9; stroke:none;" d="M126 71L127 72L126 71z"/>
<path style="fill:#fe7fd0; stroke:none;" d="M142 71C143.769 71.7789 145.036 71.9124 147 72C145.231 71.2211 143.964 71.0876 142 71z"/>
<path style="fill:#ffc8e4; stroke:none;" d="M179 71L179 76C179.83 73.9695 179.83 73.0305 179 71z"/>
<path style="fill:#fd05a5; stroke:none;" d="M42 72L42 80C52.4807 80 71.7192 84.1904 77 73C65.3093 72.0774 53.7507 72 42 72z"/>
<path style="fill:#feaee7; stroke:none;" d="M79 72L80 73L79 72z"/>
<path style="fill:#ff0072; stroke:none;" d="M180 78C182.454 91.2203 181 105.58 181 119C189.687 117.208 198.229 117.108 207 116L207 107C202.947 107.32 199.045 108.272 195 107.315C188.422 105.758 180.321 98.4081 186.738 91.5849C191.184 86.8578 200.864 85.021 207 85L207 72C196.874 72 189.536 75.6607 180 78z"/>
<path style="fill:#fe5fca; stroke:none;" d="M129 73L130 74L129 73z"/>
<path style="fill:#fe79d1; stroke:none;" d="M130 74L131 75L130 74z"/>
<path style="fill:#fe7fd2; stroke:none;" d="M131 75L132 76L131 75z"/>
<path style="fill:#ffb4d2; stroke:none;" d="M27 76L27 117C30.3062 109.121 28 96.5339 28 88C28 84.0172 28.552 79.6987 27 76z"/>
<path style="fill:#fd3eb3; stroke:none;" d="M41 76L41 81C41.8299 78.9695 41.8299 78.0305 41 76z"/>
<path style="fill:#fe77ce; stroke:none;" d="M132 76L133 77L132 76z"/>
<path style="fill:#fd05a0; stroke:none;" d="M0 82L0 93C8.10197 88.6967 17.8203 85.3496 27 84L27 77L0 82z"/>
<path style="fill:#ffbde6; stroke:none;" d="M101 77C102.769 77.7789 104.036 77.9124 106 78C104.231 77.2211 102.964 77.0876 101 77z"/>
<path style="fill:#fe5bc3; stroke:none;" d="M133 77L134 78L133 77z"/>
<path style="fill:#fe0186; stroke:none;" d="M165 77C158.05 86.0258 151.8 87.6351 141 89L143 99C151.015 99 158.109 96.1638 166 96C166 90.0987 167.295 82.4692 165 77z"/>
<path style="fill:#fd40b8; stroke:none;" d="M97.6667 78.3333C97.2222 78.7778 98.2778 78.7222 98.3333 78.6667C98.7778 78.2222 97.7222 78.2778 97.6667 78.3333z"/>
<path style="fill:#fe058d; stroke:none;" d="M85 87C98.5299 87 111.517 89.7217 125 90C117.385 75.4449 94.7307 73.9027 85 87z"/>
<path style="fill:#fea1dc; stroke:none;" d="M109.667 78.3333C109.222 78.7778 110.278 78.7222 110.333 78.6667C110.778 78.2222 109.722 78.2778 109.667 78.3333z"/>
<path style="fill:#fe95d6; stroke:none;" d="M72 79L73 80L72 79z"/>
<path style="fill:#fe6fc8; stroke:none;" d="M94 79L95 80L94 79z"/>
<path style="fill:#fd48b9; stroke:none;" d="M112 79L113 80L112 79z"/>
<path style="fill:#feabdf; stroke:none;" d="M113 79L114 80L113 79z"/>
<path style="fill:#ffb0d2; stroke:none;" d="M166 79L166 124C167.661 120.041 167 115.26 167 111L167 91C167 87.0172 167.552 82.6987 166 79z"/>
<path style="fill:#fe068c; stroke:none;" d="M42 80L42 89C50.2124 89 58.9739 88.0891 67 90L71 80L42 80z"/>
<path style="fill:#fd54ba; stroke:none;" d="M71 80L72 81L71 80z"/>
<path style="fill:#fd50b9; stroke:none;" d="M92 80L93 81L92 80z"/>
<path style="fill:#fe9ad7; stroke:none;" d="M115 80L116 81L115 80z"/>
<path style="fill:#feb1e1; stroke:none;" d="M135 80L136 81L135 80z"/>
<path style="fill:#fe1780; stroke:none;" d="M180 80L180 124C181.552 120.301 181 115.983 181 112L181 92C181 88.0172 181.552 83.6987 180 80z"/>
<path style="fill:#fe208c; stroke:none;" d="M41 81L41 93C42.5124 89.3957 42.5124 84.6043 41 81z"/>
<path style="fill:#fe67c1; stroke:none;" d="M90 81L91 82L90 81z"/>
<path style="fill:#fe66c2; stroke:none;" d="M136 81L137 82L136 81z"/>
<path style="fill:#fea5d9; stroke:none;" d="M70 82L71 83L70 82z"/>
<path style="fill:#feb9e2; stroke:none;" d="M88 82L89 83L88 82z"/>
<path style="fill:#fe74c6; stroke:none;" d="M118 82L119 83L118 82z"/>
<path style="fill:#fe89cc; stroke:none;" d="M87 83L88 84L87 83z"/>
<path style="fill:#fea2d8; stroke:none;" d="M137 83L138 84L137 83z"/>
<path style="fill:#fe077e; stroke:none;" d="M0 101C9.06885 100.208 17.9913 95.8584 27 94L27 84C21.2804 84.4987 16.411 86.8272 10.9606 88.2994C7.50443 89.2329 3.71076 89.3201 1.43364 92.5332C-0.298642 94.9774 0.0100349 98.1608 0 101z"/>
<path style="fill:#fe69bc; stroke:none;" d="M86 84L87 85L86 84z"/>
<path style="fill:#fe57b0; stroke:none;" d="M68 85L69 86L68 85z"/>
<path style="fill:#fe64b8; stroke:none;" d="M85 85L86 86L85 85z"/>
<path style="fill:#feb7e0; stroke:none;" d="M138 85L139 86L138 85z"/>
<path style="fill:#ff0065; stroke:none;" d="M207 107L207 85C200.489 85.005 191.814 86.3542 186.738 90.973C178.78 98.2147 188.898 106.672 196 107.698C199.722 108.236 203.321 107.465 207 107z"/>
<path style="fill:#fe77bf; stroke:none;" d="M84 86L85 87L84 86z"/>
<path style="fill:#fe4aa5; stroke:none;" d="M67 87L68 88L67 87z"/>
<path style="fill:#ffa0d1; stroke:none;" d="M83 87L84 88L83 87z"/>
<path style="fill:#fe0679; stroke:none;" d="M80 96C96.4273 96.3391 112.806 102.858 129 105C128.965 100.82 129.011 93.8751 125.298 91.0239C121.572 88.1624 114.389 89.2611 110 88.9066C99.7714 88.0806 82.6389 81.4417 80 96z"/>
<path style="fill:#fea9d9; stroke:none;" d="M139 87L140 88L139 87z"/>
<path style="fill:#ffb1d7; stroke:none;" d="M67 88L68 89L67 88z"/>
<path style="fill:#fe7ec4; stroke:none;" d="M124 88L125 89L124 88z"/>
<path style="fill:#fe0970; stroke:none;" d="M42 89C41.2769 94.7215 41 100.227 41 106C41.8742 103.948 41.9528 102.253 42 100L56.9992 99.9992C58.9717 99.9856 61.6024 100.289 63.2616 98.9722C65.7966 96.9599 65.7669 91.9294 66 89L42 89z"/>
<path style="fill:#fe79c2; stroke:none;" d="M140 89L141 90L140 89z"/>
<path style="fill:#fe72b3; stroke:none;" d="M66 90L67 91L66 90z"/>
<path style="fill:#ff9ccb; stroke:none;" d="M81 90L82 91L81 90z"/>
<path style="fill:#feaad6; stroke:none;" d="M126 91L127 92L126 91z"/>
<path style="fill:#ff95c4; stroke:none;" d="M80 92L81 93L80 92z"/>
<path style="fill:#fe72bc; stroke:none;" d="M141 92L142 93L141 92z"/>
<path style="fill:#fe93bf; stroke:none;" d="M65.3333 93.6667C65.2778 93.7222 65.2222 94.7778 65.6667 94.3333C65.7222 94.2778 65.7778 93.2222 65.3333 93.6667z"/>
<path style="fill:#fe0a68; stroke:none;" d="M0 101L0 109C7.7184 104.623 18.2422 102.18 27 101L27 94C17.6244 95.2625 9.21392 99.6393 0 101z"/>
<path style="fill:#ffc0da; stroke:none;" d="M79 94L80 95L79 94z"/>
<path style="fill:#fe5dae; stroke:none;" d="M127 94L128 95L127 94z"/>
<path style="fill:#fe6da8; stroke:none;" d="M79 95L80 96L79 95z"/>
<path style="fill:#ff0a5e; stroke:none;" d="M79 96L79 103C94.9672 103.331 110.122 111.957 124 119C126.427 114.363 127.999 110.142 129 105C113.104 101.457 95.3837 96.0452 79 96z"/>
<path style="fill:#fe7bba; stroke:none;" d="M128.333 96.6667C128.278 96.7223 128.222 97.7777 128.667 97.3333C128.722 97.2778 128.778 96.2222 128.333 96.6667z"/>
<path style="fill:#fe83c0; stroke:none;" d="M142.333 96.6667C142.278 96.7223 142.222 97.7778 142.667 97.3333C142.722 97.2778 142.778 96.2222 142.333 96.6667z"/>
<path style="fill:#fe0473; stroke:none;" d="M143 99L143 111C153.052 111.32 158.833 119.279 166 125L166 96C158.074 96.0656 150.983 98.9991 143 99z"/>
<path style="fill:#fe6095; stroke:none;" d="M64.3333 98.6667C64.2778 98.7222 64.2222 99.7778 64.6667 99.3333C64.7222 99.2778 64.7778 98.2222 64.3333 98.6667z"/>
<path style="fill:#fe83ae; stroke:none;" d="M78.3333 98.6667C78.2778 98.7222 78.2223 99.7778 78.6667 99.3333C78.7222 99.2778 78.7778 98.2222 78.3333 98.6667z"/>
<path style="fill:#ffe6f2; stroke:none;" d="M142 98L142 106C143.161 103.23 143.161 100.77 142 98z"/>
<path style="fill:#ff0d4b; stroke:none;" d="M42 100L42 106L64 106L64 100L42 100z"/>
<path style="fill:#ff8cab; stroke:none;" d="M64 100L64 106C64.9511 103.715 64.9511 102.285 64 100z"/>
<path style="fill:#ff457c; stroke:none;" d="M78 100L78 106C78.9511 103.715 78.9511 102.285 78 100z"/>
<path style="fill:#ffd8e9; stroke:none;" d="M129 100L129 105C129.83 102.97 129.83 102.03 129 100z"/>
<path style="fill:#ff0c57; stroke:none;" d="M0 120C5.72016 111.192 17.1661 109.776 27 109L27 101C20.2892 101.548 13.3294 103.58 7.00386 105.835C5.1012 106.513 2.47872 106.879 1.17901 108.589C-0.942921 111.38 0 116.702 0 120z"/>
<path style="fill:#ff0d4b; stroke:none;" d="M79 103L79 108C92.1475 108.11 109.025 114.474 119 123C121.044 121.376 121.896 120.357 123 118C109.473 111.032 94.594 103.129 79 103z"/>
<path style="fill:#ff284a; stroke:none;" d="M41 106L41 114C42.1614 111.23 42.1614 108.77 41 106z"/>
<path style="fill:#ff133b; stroke:none;" d="M42 106L42 111L65 111C63.2163 102.826 48.6511 106 42 106z"/>
<path style="fill:#ff5377; stroke:none;" d="M64.3333 106.667C64.2778 106.722 64.2222 107.778 64.6667 107.333C64.7222 107.278 64.7778 106.222 64.3333 106.667z"/>
<path style="fill:#ffa0b6; stroke:none;" d="M78.3333 106.667C78.2778 106.722 78.2223 107.778 78.6667 107.333C78.7222 107.278 78.7778 106.222 78.3333 106.667z"/>
<path style="fill:#ffaed1; stroke:none;" d="M142 106L142 109C142.696 107.446 142.696 107.554 142 106z"/>
<path style="fill:#fe6ba5; stroke:none;" d="M128 107L128 110C128.696 108.446 128.696 108.554 128 107z"/>
<path style="fill:#ff0f40; stroke:none;" d="M79 108C79.5988 110.482 80.1224 113.437 82.419 114.973C85.4031 116.969 90.5463 116.674 93.9961 117.841C103.158 120.941 108.799 127.69 119 124C116.982 119.987 113.832 118.932 110 116.849C100.755 111.822 89.5598 108.029 79 108z"/>
<path style="fill:#ff123c; stroke:none;" d="M0 125C8.98212 119.999 17.3142 116.439 27 113L27 109C20.0157 109.3 6.48043 110.082 1.93827 116.302C0.157006 118.742 0.12587 122.12 0 125z"/>
<path style="fill:#ff3e8f; stroke:none;" d="M142.333 109.667C142.278 109.722 142.222 110.778 142.667 110.333C142.722 110.278 142.778 109.222 142.333 109.667z"/>
<path style="fill:#ff5979; stroke:none;" d="M79 110L80 111L79 110z"/>
<path style="fill:#ff2a24; stroke:none;" d="M42 111L42 119L67 119C66.6435 116.641 66.3865 113.598 64.2971 112.028C62.3593 110.571 59.2664 111.005 57 111L42 111z"/>
<path style="fill:#ff7684; stroke:none;" d="M65.3333 111.667C65.2778 111.722 65.2222 112.778 65.6667 112.333C65.7222 112.278 65.7778 111.222 65.3333 111.667z"/>
<path style="fill:#ffa9b7; stroke:none;" d="M79 111L80 112L79 111z"/>
<path style="fill:#ff0669; stroke:none;" d="M142 111C140.406 120.092 148.994 123.615 154.985 129.17C158.463 132.394 161.172 136.182 165 139C165.167 135.122 166.535 130.837 165.683 127C163.515 117.242 151.028 111.032 142 111z"/>
<path style="fill:#fea0c2; stroke:none;" d="M127 112L128 113L127 112z"/>
<path style="fill:#ff1e31; stroke:none;" d="M1 130C9.63769 125.384 17.3215 121.158 27 119L27 113C18.8355 114.845 -0.802294 119.015 1 130z"/>
<path style="fill:#ff798b; stroke:none;" d="M80 113L81 114L80 113z"/>
<path style="fill:#ff8ab9; stroke:none;" d="M141 113L142 114L141 113z"/>
<path style="fill:#ff433d; stroke:none;" d="M41 114L41 122C42.1614 119.23 42.1614 116.77 41 114z"/>
<path style="fill:#ff85ae; stroke:none;" d="M126 114L127 115L126 114z"/>
<path style="fill:#ff989c; stroke:none;" d="M66 115L67 116L66 115z"/>
<path style="fill:#ff7c88; stroke:none;" d="M81 115L82 116L81 115z"/>
<path style="fill:#ff2827; stroke:none;" d="M82 116C88.8204 127.554 100.778 129.269 113 127C104.427 120.579 92.7283 116.03 82 116z"/>
<path style="fill:#ffa2bf; stroke:none;" d="M125 116L126 117L125 116z"/>
<path style="fill:#ff98be; stroke:none;" d="M140 116L141 117L140 116z"/>
<path style="fill:#fe027e; stroke:none;" d="M191 195C195.651 191.126 194.531 187.516 194.086 182C193.43 173.876 191.754 165.861 190.255 157.91C189.423 153.495 189.302 149.993 187 146C192.517 144.066 192.161 131.178 192 126C197.155 125.127 201.706 124.004 207 124L207 116C200.689 116.498 187.61 114.976 182.589 119.14C178.313 122.685 180.24 132.15 179.91 137C179.439 143.93 181.234 148.307 182.539 155C183.887 161.909 184.89 169.231 186.785 176C188.625 182.576 190.942 188.035 191 195z"/>
<path style="fill:#ffb0ad; stroke:none;" d="M27 117L27 127C28.3457 123.793 28.3457 120.207 27 117z"/>
<path style="fill:#ffb4b8; stroke:none;" d="M82 117L83 118L82 117z"/>
<path style="fill:#ff4f84; stroke:none;" d="M124 117L125 118L124 117z"/>
<path style="fill:#ff0a58; stroke:none;" d="M140 117C138.261 122.456 134.827 126.807 131 131C133.521 133.837 136.512 134.406 139.576 136.418C144.002 139.324 147.509 143.676 150.688 147.83C152.09 149.664 154.395 155.37 157.042 155.364C161.988 155.353 165.378 143.772 164.31 140C161.758 130.985 147.961 120.966 140 117z"/>
<path style="fill:#ff817b; stroke:none;" d="M67 118L68 119L67 118z"/>
<path style="fill:#ff787c; stroke:none;" d="M83 118L84 119L83 118z"/>
<path style="fill:#ff2826; stroke:none;" d="M1 132C9.20632 127.847 17.6515 122.408 27 122L27 119C18.305 120.15 5.28117 123.735 1 132z"/>
<path style="fill:#fe3817; stroke:none;" d="M42 119L42 125L71 125C65.7622 115.529 51.5405 119 42 119z"/>
<path style="fill:#ffc4d4; stroke:none;" d="M123 119L124 120L123 119z"/>
<path style="fill:#ff5e97; stroke:none;" d="M139 119L140 120L139 119z"/>
<path style="fill:#fe948a; stroke:none;" d="M68 120L69 121L68 120z"/>
<path style="fill:#ffaac1; stroke:none;" d="M122 120L123 121L122 120z"/>
<path style="fill:#ffa6bd; stroke:none;" d="M121 121L122 122L121 121z"/>
<path style="fill:#fe6297; stroke:none;" d="M138 121L139 122L138 121z"/>
<path style="fill:#fe3b14; stroke:none;" d="M1 143C7.81098 136.894 17.6661 129.408 27 129L27 122C19.8825 122.148 15.2297 124.739 9 127.819C6.5625 129.025 3.53073 129.75 2.02778 132.228C0.247438 135.163 1 139.71 1 143z"/>
<path style="fill:#fe6541; stroke:none;" d="M41 122L41 130C42.1614 127.23 42.1614 124.77 41 122z"/>
<path style="fill:#fe8a79; stroke:none;" d="M69 122L70 123L69 122z"/>
<path style="fill:#ff5e58; stroke:none;" d="M87 122L88 123L87 122z"/>
<path style="fill:#ffb6c7; stroke:none;" d="M120 122L121 123L120 122z"/>
<path style="fill:#ff8680; stroke:none;" d="M88 123L89 124L88 123z"/>
<path style="fill:#ffc2be; stroke:none;" d="M89 124L90 125L89 124z"/>
<path style="fill:#ff7b95; stroke:none;" d="M117 124L118 125L117 124z"/>
<path style="fill:#ff9bb9; stroke:none;" d="M136 124L137 125L136 124z"/>
<path style="fill:#ffe4f0; stroke:none;" d="M179 124L179 132C180.161 129.23 180.161 126.77 179 124z"/>
<path style="fill:#fe0486; stroke:none;" d="M192 126C191.813 131.749 192.238 142.801 187 146C192.864 159.197 193.869 176.674 195 191C199.941 186.161 198.033 177.332 197.285 171C196.223 161.997 196.908 153.131 201 145L199 145C201.457 141.304 203.054 137.224 207 135L207 124C201.656 124.001 197.155 124.636 192 126z"/>
<path style="fill:#fe5405; stroke:none;" d="M42 125L42 139C55.4129 139 68.5739 137 82 137C79.1522 133.276 74.3467 127.357 69.9105 125.603C62.4194 122.641 50.0279 125 42 125z"/>
<path style="fill:#ffa38e; stroke:none;" d="M71 125L72 126L71 125z"/>
<path style="fill:#ff9890; stroke:none;" d="M91 125L92 126L91 125z"/>
<path style="fill:#ff5972; stroke:none;" d="M115 125L116 126L115 125z"/>
<path style="fill:#ff9c93; stroke:none;" d="M93 126L94 127L93 126z"/>
<path style="fill:#ff697a; stroke:none;" d="M113 126L114 127L113 126z"/>
<path style="fill:#fe8a63; stroke:none;" d="M27 127L27 133C27.9511 130.715 27.9511 129.285 27 127z"/>
<path style="fill:#ffcac5; stroke:none;" d="M95 127L96 128L95 127z"/>
<path style="fill:#fe897f; stroke:none;" d="M96 127L97 128L96 127z"/>
<path style="fill:#ff666f; stroke:none;" d="M110 127L111 128L110 127z"/>
<path style="fill:#ffa8ae; stroke:none;" d="M111 127L112 128L111 127z"/>
<path style="fill:#ff759a; stroke:none;" d="M134 127L135 128L134 127z"/>
<path style="fill:#fd3c2c; stroke:none;" d="M0 128L0 148C2.08664 143.027 2.08665 132.973 0 128z"/>
<path style="fill:#fe7347; stroke:none;" d="M73 128L74 129L73 128z"/>
<path style="fill:#ffaaa4; stroke:none;" d="M99.6667 128.333C99.2222 128.778 100.278 128.722 100.333 128.667C100.778 128.222 99.7222 128.278 99.6667 128.333z"/>
<path style="fill:#ff7f7c; stroke:none;" d="M101 128C102.769 128.779 104.036 128.912 106 129C104.231 128.221 102.964 128.088 101 128z"/>
<path style="fill:#ffb8b9; stroke:none;" d="M106.667 128.333C106.222 128.778 107.278 128.722 107.333 128.667C107.778 128.222 106.722 128.278 106.667 128.333z"/>
<path style="fill:#ff9fb7; stroke:none;" d="M133 128L134 129L133 128z"/>
<path style="fill:#fe5305; stroke:none;" d="M1 155C7.53858 147.59 18.5923 142.69 28 140C27.313 136.3 27.0104 132.763 27 129C19.9682 129.146 17.75 132.098 11.946 135.046C8.20903 136.944 4.29085 138.03 2.17901 142.04C0.211798 145.775 1 150.915 1 155z"/>
<path style="fill:#fe885e; stroke:none;" d="M74 129L75 130L74 129z"/>
<path style="fill:#ffb8c9; stroke:none;" d="M132 129L133 130L132 129z"/>
<path style="fill:#fe956b; stroke:none;" d="M41 130L41 133C41.6961 131.446 41.6961 131.554 41 130z"/>
<path style="fill:#fe936a; stroke:none;" d="M75 130L76 131L75 130z"/>
<path style="fill:#ffc3d0; stroke:none;" d="M131 130L132 131L131 130z"/>
<path style="fill:#fe9367; stroke:none;" d="M76 131L77 132L76 131z"/>
<path style="fill:#ffbecb; stroke:none;" d="M130 131L131 132L130 131z"/>
<path style="fill:#fe8b59; stroke:none;" d="M77 132L78 133L77 132z"/>
<path style="fill:#ffadbc; stroke:none;" d="M129 132L130 133L129 132z"/>
<path style="fill:#ff0f40; stroke:none;" d="M125 136C128.503 138.908 133.145 139.556 137 142.002C143.181 145.925 146.692 150.698 151.596 155.809C153.779 158.084 155.269 157.901 158 157C149.286 148.553 140.199 125.589 125 136z"/>
<path style="fill:#ffacd1; stroke:none;" d="M179 132L179 135C179.696 133.446 179.696 133.554 179 132z"/>
<path style="fill:#fe6625; stroke:none;" d="M27 133L27 138C27.8299 135.97 27.8299 135.03 27 133z"/>
<path style="fill:#feae8b; stroke:none;" d="M41.3333 133.667C41.2778 133.722 41.2222 134.778 41.6667 134.333C41.7222 134.278 41.7778 133.222 41.3333 133.667z"/>
<path style="fill:#ff8d9f; stroke:none;" d="M128 133L129 134L128 133z"/>
<path style="fill:#ff2a7f; stroke:none;" d="M165 133L165 136C165.696 134.446 165.696 134.554 165 133z"/>
<path style="fill:#ffd3bf; stroke:none;" d="M80 134L81 135L80 134z"/>
<path style="fill:#ff6175; stroke:none;" d="M127 134L128 135L127 134z"/>
<path style="fill:#ffc6ab; stroke:none;" d="M41 135L41 138C41.6961 136.446 41.6961 136.554 41 135z"/>
<path style="fill:#fea77a; stroke:none;" d="M81 135L82 136L81 135z"/>
<path style="fill:#ffc3c7; stroke:none;" d="M125 135L126 136L125 135z"/>
<path style="fill:#fe81bb; stroke:none;" d="M179 135L179 138C179.696 136.446 179.696 136.554 179 135z"/>
<path style="fill:#fe0492; stroke:none;" d="M204 135L199 145L201 145C193.249 156.694 198 173.806 198 187C202.038 182.69 201.037 176.579 200.997 171.001C200.929 161.464 200.476 153.645 205 145C203.521 144.014 203.797 144 202 144C204.464 141.225 206.09 138.606 207 135L204 135z"/>
<path style="fill:#fe6903; stroke:none;" d="M42 139C42.4091 141.064 42.5751 144.627 44.5887 145.868C46.1983 146.86 48.3091 146.015 49.9113 145.461C54.5029 143.872 58.1814 143.285 63 142.715C85.0765 140.1 107.647 145.143 126.961 155.969C131.395 158.455 134.324 162.789 139 165C136.211 156.233 125.664 152.006 118.169 147.986C115.165 146.375 112.369 144.218 108.999 143.415C104.079 142.243 98.9696 142.649 94 141.254C89.6603 140.036 85.5211 137.129 81 136.85C67.9894 136.047 55.0145 139 42 139z"/>
<path style="fill:#ffd6c0; stroke:none;" d="M83 136L84 137L83 136z"/>
<path style="fill:#ff787d; stroke:none;" d="M124 136L125 137L124 136z"/>
<path style="fill:#ff639f; stroke:none;" d="M165 136L165 139C165.696 137.446 165.696 137.554 165 136z"/>
<path style="fill:#fe9458; stroke:none;" d="M84 137L85 138L84 137z"/>
<path style="fill:#ffa29f; stroke:none;" d="M122 137L123 138L122 137z"/>
<path style="fill:#ff3026; stroke:none;" d="M122 138C124.437 142.348 128.135 142.939 132 145.723C138.189 150.181 144.811 161.693 153 161L153 159C146.839 155.082 140.488 149.892 135.17 144.89C131.186 141.142 127.874 136.875 122 138z"/>
<path style="fill:#fe9e65; stroke:none;" d="M86 138L87 139L86 138z"/>
<path style="fill:#ffaba1; stroke:none;" d="M120 138L121 139L120 138z"/>
<path style="fill:#ff4220; stroke:none;" d="M116 140C121.369 143.613 127.498 146.242 132.834 149.873C138.492 153.724 142.634 159.206 149 162C145.08 155.862 138.909 149.978 133 145.723C129.047 142.877 125.197 141.883 122 138L116 140z"/>
<path style="fill:#ff272f; stroke:none;" d="M128 138C131.546 143.325 136.995 146.688 141.83 150.704C145.927 154.106 149.24 157.453 154 160C149.391 148.897 139.489 141.08 128 138z"/>
<path style="fill:#fe4197; stroke:none;" d="M179 138L179 141C179.696 139.446 179.696 139.554 179 138z"/>
<path style="fill:#fd039e; stroke:none;" d="M206 138L202 144L205 145C197.938 155.046 201 170.259 201 182C207.812 173.558 207 160.238 207 150C207 146.017 207.552 141.699 206 138z"/>
<path style="fill:#ffd7c3; stroke:none;" d="M28 139L28 142C28.6961 140.446 28.6961 140.554 28 139z"/>
<path style="fill:#fe914f; stroke:none;" d="M88 139L89 140L88 139z"/>
<path style="fill:#ffceb0; stroke:none;" d="M89 139L90 140L89 139z"/>
<path style="fill:#fe9783; stroke:none;" d="M118 139L119 140L118 139z"/>
<path style="fill:#ffc2d8; stroke:none;" d="M165.333 139.667C165.278 139.722 165.222 140.778 165.667 140.333C165.722 140.278 165.778 139.222 165.333 139.667z"/>
<path style="fill:#fe6604; stroke:none;" d="M1 167C8.32173 160.343 20.0126 153.306 30 152L28 140C20.8368 141.273 6.10113 146.557 2.3179 153.21C0.117011 157.08 1 162.718 1 167z"/>
<path style="fill:#fea46b; stroke:none;" d="M91 140L92 141L91 140z"/>
<path style="fill:#ffac92; stroke:none;" d="M115 140L116 141L115 140z"/>
<path style="fill:#ffae80; stroke:none;" d="M42 141L42 144C42.6961 142.446 42.6961 142.554 42 141z"/>
<path style="fill:#ffb07e; stroke:none;" d="M94.6667 141.333C94.2222 141.778 95.2778 141.722 95.3333 141.667C95.7778 141.222 94.7222 141.278 94.6667 141.333z"/>
<path style="fill:#ffb696; stroke:none;" d="M110 141C111.248 141.685 111.548 141.749 113 142C111.752 141.315 111.452 141.251 110 141z"/>
<path style="fill:#fe5a0d; stroke:none;" d="M108 142C114.439 147.549 122.912 150.498 129.975 155.209C134.284 158.083 136.839 162.594 142 164C137.772 158.002 131.881 153.556 126.424 148.719C123.343 145.988 120.139 142.802 115.996 141.778C113.417 141.14 110.605 141.802 108 142z"/>
<path style="fill:#fe4e18; stroke:none;" d="M116 141C120.615 145.225 125.907 148.792 130.59 153.039C135.98 157.927 140.121 164.207 148 163C142.929 156.227 135.429 151.288 128.285 147.07C124.02 144.553 121.032 141.897 116 141z"/>
<path style="fill:#fe9155; stroke:none;" d="M28.3333 142.667C28.2778 142.722 28.2222 143.778 28.6667 143.333C28.7222 143.278 28.7778 142.222 28.3333 142.667z"/>
<path style="fill:#fe7903; stroke:none;" d="M44 147C45.6358 151.385 47.576 155.332 52.9645 154.123C55.862 153.472 58.1974 151.53 61.0394 150.718C68.4685 148.598 78.372 147.999 86 149.259C95.243 150.787 105.144 153.938 113.83 157.416C121.771 160.595 128.132 164.97 137 165C133.017 158.181 126.533 155.954 120 152.406C101.247 142.221 76.1797 139.302 55.1698 143.26C51.3695 143.976 47.7574 145.992 44 147z"/>
<path style="fill:#fe9657; stroke:none;" d="M99 142C101.332 142.985 103.457 142.981 106 143C103.668 142.015 101.543 142.019 99 142z"/>
<path style="fill:#fe782e; stroke:none;" d="M106.667 142.333C106.222 142.778 107.278 142.722 107.333 142.667C107.778 142.222 106.722 142.278 106.667 142.333z"/>
<path style="fill:#fe93b9; stroke:none;" d="M164.333 143.667C164.278 143.722 164.222 144.778 164.667 144.333C164.722 144.278 164.778 143.222 164.333 143.667z"/>
<path style="fill:#fe87bc; stroke:none;" d="M178 143L178 146C178.696 144.446 178.696 144.554 178 143z"/>
<path style="fill:#feb080; stroke:none;" d="M29.3333 146.667C29.2778 146.722 29.2222 147.778 29.6667 147.333C29.7222 147.278 29.7778 146.222 29.3333 146.667z"/>
<path style="fill:#ffbb8d; stroke:none;" d="M43 146L44 147L43 146z"/>
<path style="fill:#fe0773; stroke:none;" d="M178 146C176.695 163.358 188.254 179.883 189 197C192.074 192.943 190.932 187.657 189.561 183C186.039 171.034 184.919 157.433 180 146L178 146z"/>
<path style="fill:#ff85ad; stroke:none;" d="M163 147L164 148L163 147z"/>
<path style="fill:#fd3c47; stroke:none;" d="M0 148L0 160C1.51243 156.396 1.51243 151.604 0 148z"/>
<path style="fill:#fe984b; stroke:none;" d="M44 148L45 149L44 148z"/>
<path style="fill:#ff9ac5; stroke:none;" d="M177 148L178 149L177 148z"/>
<path style="fill:#ffd5b5; stroke:none;" d="M44 149L45 150L44 149z"/>
<path style="fill:#fe8a02; stroke:none;" d="M49 155C54.2934 161.334 63.6695 157.036 71 157.001C79.9318 156.958 89.2018 156.456 97.9961 158.34C102.844 159.378 106.441 163.291 111.285 164.541C116.761 165.953 123.371 165 129 165L129 163C123.619 162.085 119.638 159.438 114.715 157.416C106.11 153.882 96.1864 150.777 87 149.259C78.8688 147.916 68.0043 148.399 60.0895 150.718C56.272 151.837 52.9084 153.943 49 155z"/>
<path style="fill:#ff568b; stroke:none;" d="M162 149L163 150L162 149z"/>
<path style="fill:#fe569d; stroke:none;" d="M177 149L178 150L177 149z"/>
<path style="fill:#ffc7a1; stroke:none;" d="M30 150L31 151L30 150z"/>
<path style="fill:#fe974f; stroke:none;" d="M30 151L31 152L30 151z"/>
<path style="fill:#ffd5b2; stroke:none;" d="M45 151L46 152L45 151z"/>
<path style="fill:#ff5587; stroke:none;" d="M161 151L162 152L161 151z"/>
<path style="fill:#ffafd0; stroke:none;" d="M176 151L177 152L176 151z"/>
<path style="fill:#fe0967; stroke:none;" d="M177 151C175.185 155.359 169.827 161.281 169.747 165.91C169.688 169.321 173.441 172.386 174 176C181.924 179.984 182.994 192.051 184 200C186.956 198.341 188.85 196.673 188.768 192.996C188.603 185.669 184.324 178.079 182.597 171C181.013 164.505 180.974 156.578 177 151z"/>
<path style="fill:#fe7303; stroke:none;" d="M3 176C8.82836 169.883 16.4807 164.772 24 160.959C26.4092 159.738 31.3521 158.551 31.2485 155.09C31.0546 148.616 20.3174 155.092 18 156.086C13.0984 158.188 4.67619 160.561 2.60417 166.019C1.41038 169.164 2.41219 172.834 3 176z"/>
<path style="fill:#fea14d; stroke:none;" d="M46 152L47 153L46 152z"/>
<path style="fill:#fe559a; stroke:none;" d="M176 152L177 153L176 152z"/>
<path style="fill:#ffbe8f; stroke:none;" d="M31 153L32 154L31 153z"/>
<path style="fill:#ff92b0; stroke:none;" d="M160 153L161 154L160 153z"/>
<path style="fill:#ffd7b0; stroke:none;" d="M47 154L48 155L47 154z"/>
<path style="fill:#ff5883; stroke:none;" d="M159 154L160 155L159 154z"/>
<path style="fill:#fe88b6; stroke:none;" d="M175 154L176 155L175 154z"/>
<path style="fill:#ffd4b3; stroke:none;" d="M32 155L33 156L32 155z"/>
<path style="fill:#fec488; stroke:none;" d="M48 155L49 156L48 155z"/>
<path style="fill:#fe8203; stroke:none;" d="M32 156C25.4955 160.835 17.6287 163.588 11.0008 168.475C8.69463 170.175 5.04068 172.184 4.36111 175.209C3.29854 179.939 7.58142 185.333 10 189L38 166C36.5019 162.386 34.518 158.997 32 156z"/>
<path style="fill:#ffbd77; stroke:none;" d="M49 156L50 157L49 156z"/>
<path style="fill:#ff9ec3; stroke:none;" d="M174 156L175 157L174 156z"/>
<path style="fill:#ffd8b7; stroke:none;" d="M33 157L34 158L33 157z"/>
<path style="fill:#ffc079; stroke:none;" d="M50 157L51 158L50 157z"/>
<path style="fill:#fe9d02; stroke:none;" d="M53 159C59.9771 164.78 69.3227 164.999 78 165L110 165L110 163C105.911 162.172 103.022 159.215 98.9853 158.34C84.4771 155.191 67.4697 156.304 53 159z"/>
<path style="fill:#ffcc8e; stroke:none;" d="M51 158L52 159L51 158z"/>
<path style="fill:#ff556c; stroke:none;" d="M155 158L156 159L155 158z"/>
<path style="fill:#ff8fb8; stroke:none;" d="M173 158L174 159L173 158z"/>
<path style="fill:#ffc895; stroke:none;" d="M34 159L35 160L34 159z"/>
<path style="fill:#ffe1bb; stroke:none;" d="M52 159L53 160L52 159z"/>
<path style="fill:#ff8690; stroke:none;" d="M154 159L155 160L154 159z"/>
<path style="fill:#000000; stroke:none;" d="M0 160L0 206L39 206C34.8564 203.992 30.1815 203.286 26 201.19C16.1458 196.251 8.65549 188.111 4.33719 178C1.86073 172.201 2.34713 165.581 0 160z"/>
<path style="fill:#febb64; stroke:none;" d="M54 160L55 161L54 160z"/>
<path style="fill:#ffc8ca; stroke:none;" d="M153 160L154 161L153 160z"/>
<path style="fill:#ff5b94; stroke:none;" d="M172 160L173 161L172 160z"/>
<path style="fill:#fea549; stroke:none;" d="M35 161L36 162L35 161z"/>
<path style="fill:#feb44e; stroke:none;" d="M56 161L57 162L56 161z"/>
<path style="fill:#ffaca7; stroke:none;" d="M151 161L152 162L151 161z"/>
<path style="fill:#ffa7c4; stroke:none;" d="M171 161L172 162L171 161z"/>
<path style="fill:#ffc689; stroke:none;" d="M36 162L37 163L36 162z"/>
<path style="fill:#fec46e; stroke:none;" d="M58 162L59 163L58 162z"/>
<path style="fill:#ff745c; stroke:none;" d="M148 162L149 163L148 162z"/>
<path style="fill:#ffbeb4; stroke:none;" d="M149 162L150 163L149 162z"/>
<path style="fill:#ffdfbb; stroke:none;" d="M37 163L38 164L37 163z"/>
<path style="fill:#ffe2b6; stroke:none;" d="M60 163L61 164L60 163z"/>
<path style="fill:#fe815a; stroke:none;" d="M145 163L146 164L145 163z"/>
<path style="fill:#ffb29e; stroke:none;" d="M146 163L147 164L146 163z"/>
<path style="fill:#fece7f; stroke:none;" d="M64.6667 164.333C64.2222 164.778 65.2778 164.722 65.3333 164.667C65.7778 164.222 64.7222 164.278 64.6667 164.333z"/>
<path style="fill:#feb234; stroke:none;" d="M66.6667 164.333C66.2222 164.778 67.2778 164.722 67.3333 164.667C67.7778 164.222 66.7222 164.278 66.6667 164.333z"/>
<path style="fill:#fe8c4f; stroke:none;" d="M139 164C140.248 164.685 140.548 164.749 142 165C140.752 164.315 140.452 164.251 139 164z"/>
<path style="fill:#ffddcf; stroke:none;" d="M142.667 164.333C142.222 164.778 143.278 164.722 143.333 164.667C143.778 164.222 142.722 164.278 142.667 164.333z"/>
<path style="fill:#ff5488; stroke:none;" d="M169 164L170 165L169 164z"/>
<path style="fill:#ff9902; stroke:none;" d="M38 165C29.2422 172.891 20.8795 180.499 11 187C11.8746 190.335 13.0223 192.227 16 194C17.8004 188.129 24.4309 185.912 28.8958 182.452C34.3353 178.237 37.5229 174.095 44 171C42.2048 168.493 40.5075 166.795 38 165z"/>
<path style="fill:#ffe3b4; stroke:none;" d="M70 165C72.3316 165.985 74.4566 165.981 77 166C74.6685 165.015 72.5433 165.019 70 165z"/>
<path style="fill:#febd4f; stroke:none;" d="M77 165C81.7199 166.981 87.9198 166 93 166L127 166C122.28 164.019 116.08 165 111 165L77 165z"/>
<path style="fill:#ffc99b; stroke:none;" d="M127 165C129.052 165.874 130.747 165.953 133 166C130.948 165.126 129.253 165.047 127 165z"/>
<path style="fill:#ffe9d9; stroke:none;" d="M133 165C134.769 165.779 136.036 165.912 138 166C136.231 165.221 134.964 165.088 133 165z"/>
<path style="fill:#ff6c95; stroke:none;" d="M168 165L169 166L168 165z"/>
<path style="fill:#000000; stroke:none;" d="M206 165C205.131 184.929 188.009 203.363 168 205C171.959 206.661 176.74 206 181 206L207 206L207 179C207 174.464 207.769 169.215 206 165z"/>
<path style="fill:#ff7a9a; stroke:none;" d="M167 166L168 167L167 166z"/>
<path style="fill:#ff2149; stroke:none;" d="M168 166L163 170C165.236 175.883 169.912 179.766 173.035 185.09C175.897 189.969 177.843 196.481 179 202C184.05 200.307 181.854 196.271 181.166 192.015C180.42 187.404 178.25 185.635 175.88 181.826C172.776 176.841 170.667 171.189 168 166z"/>
<path style="fill:#ff3a51; stroke:none;" d="M1.33333 167.667C1.27777 167.722 1.22223 168.778 1.66667 168.333C1.72222 168.278 1.77778 167.222 1.33333 167.667z"/>
<path style="fill:#ff7793; stroke:none;" d="M166 167L167 168L166 167z"/>
<path style="fill:#ff6b84; stroke:none;" d="M165 168L166 169L165 168z"/>
<path style="fill:#fe1456; stroke:none;" d="M169 168C170.825 175.956 176.846 181.281 180.144 188.3C181.843 191.917 182.099 197.061 183 201C185.663 194.177 181.391 178.237 174 176C173.689 171.898 172.6 170.019 169 168z"/>
<path style="fill:#ffe1b3; stroke:none;" d="M43 169L44 170L43 169z"/>
<path style="fill:#ffcc7d; stroke:none;" d="M44 170L45 171L44 170z"/>
<path style="fill:#ffc9cd; stroke:none;" d="M162 170L163 171L162 170z"/>
<path style="fill:#ffb501; stroke:none;" d="M15 192C17.8206 197.321 22.2793 200.317 28 202C30.651 197.113 34.5958 194.86 39.0008 191.701C51.6529 182.627 68.5839 181.001 84 181C89.5438 181 95.5497 180.364 101 181.518C112.435 183.939 126.897 192.225 125 206C128.786 205.997 132.306 205.879 136 205C133.659 196.246 128.654 185.27 119.999 181.024C115.306 178.721 108.103 180 103 180C90.6115 180 78.3131 180.3 66 178.83C61.2078 178.258 56.3724 176.694 52 174.677C48.7461 173.176 45.7514 170.92 42 171.809C35.8574 173.263 33.3131 177.921 28.8958 181.704C24.6382 185.351 19.5003 188.537 15 192z"/>
<path style="fill:#ff8f91; stroke:none;" d="M161 171L162 172L161 171z"/>
<path style="fill:#ff2b35; stroke:none;" d="M162 171C165.065 182.431 174.211 191.606 175 204C180.26 201.878 178.364 197.386 176.586 193C173.224 184.705 169.083 176.831 162 171z"/>
<path style="fill:#ffd180; stroke:none;" d="M47 172L48 173L47 172z"/>
<path style="fill:#ffc8c4; stroke:none;" d="M159 172L160 173L159 172z"/>
<path style="fill:#ff372d; stroke:none;" d="M160 172C161.499 177.195 164.697 181.281 166.826 186.17C169.308 191.868 170.51 198.837 171 205C176.373 202.84 174.501 198.535 172.883 194C170.358 186.918 167.097 175.581 160 172z"/>
<path style="fill:#ffdd9e; stroke:none;" d="M49 173L50 174L49 173z"/>
<path style="fill:#ff7765; stroke:none;" d="M158 173L159 174L158 173z"/>
<path style="fill:#ff511e; stroke:none;" d="M154 175C154.169 180.703 157.242 183.136 159.316 188.09C161.454 193.197 162.839 200.497 163 206C165.73 205.883 168.314 205.501 171 205C170.485 193.037 165.971 183.134 160 173L154 175z"/>
<path style="fill:#ffdb97; stroke:none;" d="M51 174L52 175L51 174z"/>
<path style="fill:#ff8063; stroke:none;" d="M156 174L157 175L156 174z"/>
<path style="fill:#ffcf6e; stroke:none;" d="M53 175L54 176L53 175z"/>
<path style="fill:#ffb89e; stroke:none;" d="M153 175L154 176L153 175z"/>
<path style="fill:#fe405f; stroke:none;" d="M3 176L4 177L3 176z"/>
<path style="fill:#ffd57c; stroke:none;" d="M56 176L57 177L56 176z"/>
<path style="fill:#ffc3a4; stroke:none;" d="M150 176L151 177L150 176z"/>
<path style="fill:#fe8e58; stroke:none;" d="M151 176L152 177L151 176z"/>
<path style="fill:#fe6313; stroke:none;" d="M148 177C152.22 182.672 157.092 189.276 159.384 196.001C160.48 199.214 161.656 201.977 160 205C161.809 205.574 162.069 205.465 164 205C162.481 199.317 161.636 192.535 159.316 187.171C157.535 183.055 154.609 180.649 154 176L148 177z"/>
<path style="fill:#ffdd91; stroke:none;" d="M59.6667 177.333C59.2222 177.778 60.2778 177.722 60.3333 177.667C60.7778 177.222 59.7222 177.278 59.6667 177.333z"/>
<path style="fill:#fead75; stroke:none;" d="M146.667 177.333C146.222 177.778 147.278 177.722 147.333 177.667C147.778 177.222 146.722 177.278 146.667 177.333z"/>
<path style="fill:#ffcb51; stroke:none;" d="M63 178C64.2484 178.685 64.5484 178.749 66 179C64.7517 178.315 64.4516 178.251 63 178z"/>
<path style="fill:#ffe8b1; stroke:none;" d="M66.6667 178.333C66.2222 178.778 67.2778 178.722 67.3333 178.667C67.7778 178.222 66.7222 178.278 66.6667 178.333z"/>
<path style="fill:#ffdebb; stroke:none;" d="M138 178C139.248 178.685 139.548 178.749 141 179C139.752 178.315 139.452 178.251 138 178z"/>
<path style="fill:#feaf61; stroke:none;" d="M141 178C142.248 178.685 142.548 178.749 144 179C142.752 178.315 142.452 178.251 141 178z"/>
<path style="fill:#fe720d; stroke:none;" d="M144 178C146.128 185.673 160.039 196.281 154 205C156.806 206.146 159.071 205.692 162 205C160.626 195.694 154.893 178.361 144 178z"/>
<path style="fill:#ffc639; stroke:none;" d="M72 179C74.6127 180.098 77.1645 179.993 80 180C77.3873 178.902 74.8355 179.007 72 179z"/>
<path style="fill:#ffda7f; stroke:none;" d="M80 179C83.9586 180.661 88.7396 180 93 180L119 180C115.041 178.339 110.26 179 106 179L80 179z"/>
<path style="fill:#ffc96b; stroke:none;" d="M119 179C121.89 180.213 124.874 179.998 128 180C125.11 178.787 122.126 179.002 119 179z"/>
<path style="fill:#ffab34; stroke:none;" d="M128 179C129.769 179.779 131.036 179.912 133 180C131.231 179.221 129.964 179.088 128 179z"/>
<path style="fill:#fe8503; stroke:none;" d="M133 179C140.701 187.329 146.422 194.34 148 206C150.198 205.947 153.436 206.253 154.958 204.258C157.31 201.173 153.608 192.386 151.89 189.455C147.053 181.2 142.084 179 133 179z"/>
<path style="fill:#ffa501; stroke:none;" d="M120 180C124.547 186.348 137.383 196.049 134 205C137.047 206.243 139.807 205.591 143 205C139.083 194.831 132.685 180.412 120 180z"/>
<path style="fill:#ff9302; stroke:none;" d="M126 180C129.566 186.16 137.776 190.268 139.833 197C140.727 199.924 143.834 204.505 140 205C142.613 206.098 145.164 205.993 148 206C146.916 192.746 140.379 180.011 126 180z"/>
<path style="fill:#ffbc01; stroke:none;" d="M28 203C37.1962 204.68 40.9461 196.723 49 193.26C53.7563 191.215 58.058 191.983 62.9606 191.492C65.4903 191.238 67.5827 189.667 70.0856 189.342C73.5343 188.893 78.5409 189.277 82.0039 189.697C84.7771 190.033 87.1681 191.618 90 191.698C96.0171 191.867 101.915 189.175 107.985 190.225C113.658 191.206 122.214 198.938 120 205C124.731 206.797 126.212 203.21 124.727 198.999C122.85 193.677 118.829 188.11 113.83 185.302C106.681 181.287 97.9331 181 90 181C78.8669 181 67.7329 180.999 57 184.026C53.0023 185.154 48.7534 184.798 45 186.769C38.7552 190.048 29.5097 195.745 28 203z"/>
<path style="fill:#fd515a; stroke:none;" d="M8 186L9 187L8 186z"/>
<path style="fill:#ffc500; stroke:none;" d="M36 205C54.6576 205.801 73.2754 206 92 206C101.749 206 112.479 207.267 122 205C121.321 202.544 120.597 200.173 119.182 198.013C111.791 186.735 102.022 191.31 91 191.442C87.7875 191.481 85.1444 189.661 82 189.38C78.1976 189.04 72.9148 188.592 69.1551 189.274C66.6637 189.726 64.5653 191.079 61.9853 191.237C52.4175 191.823 38.3687 193.504 36 205z"/>
<path style="fill:#fe5a59; stroke:none;" d="M12 191L13 192L12 191z"/>
<path style="fill:#fe695a; stroke:none;" d="M13 192L14 193L13 192z"/>
<path style="fill:#ff5b5c; stroke:none;" d="M15 194L16 195L15 194z"/>
<path style="fill:#fe982e; stroke:none;" d="M34.6667 204.333C34.2222 204.778 35.2778 204.722 35.3333 204.667C35.7778 204.222 34.7222 204.278 34.6667 204.333z"/>
<path style="fill:#fe9a39; stroke:none;" d="M39 205C40.2484 205.685 40.5484 205.749 42 206C40.7516 205.315 40.4516 205.251 39 205z"/>
</svg>
